ISO-10303-21;
HEADER;
FILE_DESCRIPTION(('faceted sample'),'2;1');
FILE_NAME('faceted_prism.step','2026-06-03T12:00:00',('steprs'),('steprs.dev'),'steprs','steprs','');
FILE_SCHEMA(('AP242'));
ENDSEC;
DATA;
#1 = CARTESIAN_POINT('',(0.0,0.0,0.0));
#2 = CARTESIAN_POINT('',(40.0,0.0,0.0));
#3 = CARTESIAN_POINT('',(20.0,35.0,0.0));
#4 = CARTESIAN_POINT('',(0.0,0.0,25.0));
#5 = CARTESIAN_POINT('',(40.0,0.0,25.0));
#6 = CARTESIAN_POINT('',(20.0,35.0,25.0));
#10 = CARTESIAN_POINT_LIST('',((0.0,0.0,0.0),(40.0,0.0,0.0),(20.0,35.0,0.0)));
#11 = CARTESIAN_POINT_LIST('',((0.0,0.0,25.0),(40.0,0.0,25.0),(20.0,35.0,25.0)));
#20 = TRIANGULATED_FACE('',((#10)),.F.);
#21 = TRIANGULATED_FACE('',((#11)),.F.);
#30 = CLOSED_SHELL('',(#20,#21));
#40 = FACETED_BREP('',#30);
ENDSEC;
END-ISO-10303-21;
