ISO-10303-21;
HEADER;
FILE_DESCRIPTION(('steprs pocket — 100x100x20 block, 40x30 pocket'),'2;1');
FILE_NAME('rectangular_pocket.step','2026-06-03T12:00:00',('steprs'),('steprs.dev'),'steprs','steprs','');
FILE_SCHEMA(('AUTOMOTIVE_DESIGN { 1 0 10303 214 3 1 1 }'));
ENDSEC;
DATA;
#1 = CARTESIAN_POINT('',(0.0,0.0,0.0));
#2 = DIRECTION('',(0.0,0.0,1.0));
#3 = DIRECTION('',(1.0,0.0,0.0));
#4 = AXIS2_PLACEMENT_3D('',#1,#2,#3);
#5 = CARTESIAN_POINT('',(0.0,0.0,20.0));
#6 = AXIS2_PLACEMENT_3D('',#5,#2,#3);
#10 = CARTESIAN_POINT('',(30.0,20.0,0.0));
#11 = CARTESIAN_POINT('',(70.0,20.0,0.0));
#12 = CARTESIAN_POINT('',(70.0,50.0,0.0));
#13 = CARTESIAN_POINT('',(30.0,50.0,0.0));
#20 = CARTESIAN_POINT('',(30.0,20.0,20.0));
#21 = CARTESIAN_POINT('',(70.0,20.0,20.0));
#22 = CARTESIAN_POINT('',(70.0,50.0,20.0));
#23 = CARTESIAN_POINT('',(30.0,50.0,20.0));
#30 = CARTESIAN_POINT('',(0.0,0.0,0.0));
#31 = CARTESIAN_POINT('',(100.0,0.0,0.0));
#32 = CARTESIAN_POINT('',(100.0,100.0,0.0));
#33 = CARTESIAN_POINT('',(0.0,100.0,0.0));
#40 = CARTESIAN_POINT('',(0.0,0.0,20.0));
#41 = CARTESIAN_POINT('',(100.0,0.0,20.0));
#42 = CARTESIAN_POINT('',(100.0,100.0,20.0));
#43 = CARTESIAN_POINT('',(0.0,100.0,20.0));
#50 = PLANE('',#4);
#51 = PLANE('',#6);
#60 = FACE_OUTER_BOUND('',#70,.T.);
#61 = FACE_BOUND('',#71,.T.);
#62 = FACE_OUTER_BOUND('',#72,.T.);
#63 = FACE_BOUND('',#73,.T.);
#64 = FACE_OUTER_BOUND('',#74,.T.);
#70 = EDGE_LOOP('',(#100,#101,#102,#103));
#71 = EDGE_LOOP('',(#110,#111,#112,#113));
#72 = EDGE_LOOP('',(#120,#121,#122,#123));
#73 = EDGE_LOOP('',(#130,#131,#132,#133));
#74 = EDGE_LOOP('',(#140,#141,#142,#143));
#100 = ORIENTED_EDGE('',*,*,#200,.T.);
#101 = ORIENTED_EDGE('',*,*,#201,.T.);
#102 = ORIENTED_EDGE('',*,*,#202,.T.);
#103 = ORIENTED_EDGE('',*,*,#203,.T.);
#110 = ORIENTED_EDGE('',*,*,#210,.T.);
#111 = ORIENTED_EDGE('',*,*,#211,.T.);
#112 = ORIENTED_EDGE('',*,*,#212,.T.);
#113 = ORIENTED_EDGE('',*,*,#213,.T.);
#120 = ORIENTED_EDGE('',*,*,#220,.T.);
#121 = ORIENTED_EDGE('',*,*,#221,.T.);
#122 = ORIENTED_EDGE('',*,*,#222,.T.);
#123 = ORIENTED_EDGE('',*,*,#223,.T.);
#130 = ORIENTED_EDGE('',*,*,#230,.T.);
#131 = ORIENTED_EDGE('',*,*,#231,.T.);
#132 = ORIENTED_EDGE('',*,*,#232,.T.);
#133 = ORIENTED_EDGE('',*,*,#233,.T.);
#140 = ORIENTED_EDGE('',*,*,#240,.T.);
#141 = ORIENTED_EDGE('',*,*,#241,.T.);
#142 = ORIENTED_EDGE('',*,*,#242,.T.);
#143 = ORIENTED_EDGE('',*,*,#243,.T.);
#200 = EDGE_CURVE('',#300,#301,#400,.T.);
#201 = EDGE_CURVE('',#301,#302,#401,.T.);
#202 = EDGE_CURVE('',#302,#303,#402,.T.);
#203 = EDGE_CURVE('',#303,#300,#403,.T.);
#210 = EDGE_CURVE('',#310,#311,#410,.T.);
#211 = EDGE_CURVE('',#311,#312,#411,.T.);
#212 = EDGE_CURVE('',#312,#313,#412,.T.);
#213 = EDGE_CURVE('',#313,#310,#413,.T.);
#220 = EDGE_CURVE('',#320,#321,#420,.T.);
#221 = EDGE_CURVE('',#321,#322,#421,.T.);
#222 = EDGE_CURVE('',#322,#323,#422,.T.);
#223 = EDGE_CURVE('',#323,#320,#423,.T.);
#230 = EDGE_CURVE('',#330,#331,#430,.T.);
#231 = EDGE_CURVE('',#331,#332,#431,.T.);
#232 = EDGE_CURVE('',#332,#333,#432,.T.);
#233 = EDGE_CURVE('',#333,#330,#433,.T.);
#240 = EDGE_CURVE('',#340,#341,#440,.T.);
#241 = EDGE_CURVE('',#341,#342,#441,.T.);
#242 = EDGE_CURVE('',#342,#343,#442,.T.);
#243 = EDGE_CURVE('',#343,#340,#443,.T.);
#300 = VERTEX_POINT('',#30);
#301 = VERTEX_POINT('',#31);
#302 = VERTEX_POINT('',#32);
#303 = VERTEX_POINT('',#33);
#310 = VERTEX_POINT('',#10);
#311 = VERTEX_POINT('',#11);
#312 = VERTEX_POINT('',#12);
#313 = VERTEX_POINT('',#13);
#320 = VERTEX_POINT('',#40);
#321 = VERTEX_POINT('',#41);
#322 = VERTEX_POINT('',#42);
#323 = VERTEX_POINT('',#43);
#330 = VERTEX_POINT('',#20);
#331 = VERTEX_POINT('',#21);
#332 = VERTEX_POINT('',#22);
#333 = VERTEX_POINT('',#23);
#340 = VERTEX_POINT('',#30);
#341 = VERTEX_POINT('',#31);
#342 = VERTEX_POINT('',#32);
#343 = VERTEX_POINT('',#33);
#400 = LINE('',#4,#500);
#401 = LINE('',#4,#501);
#402 = LINE('',#4,#502);
#403 = LINE('',#4,#503);
#410 = LINE('',#4,#510);
#411 = LINE('',#4,#511);
#412 = LINE('',#4,#512);
#413 = LINE('',#4,#513);
#420 = LINE('',#6,#520);
#421 = LINE('',#6,#521);
#422 = LINE('',#6,#522);
#423 = LINE('',#6,#523);
#430 = LINE('',#6,#530);
#431 = LINE('',#6,#531);
#432 = LINE('',#6,#532);
#433 = LINE('',#6,#533);
#440 = LINE('',#4,#540);
#441 = LINE('',#4,#541);
#442 = LINE('',#4,#542);
#443 = LINE('',#4,#543);
#500 = VECTOR('',#3,100.0);
#501 = VECTOR('',#3,100.0);
#502 = VECTOR('',#3,100.0);
#503 = VECTOR('',#3,100.0);
#510 = VECTOR('',#3,40.0);
#511 = VECTOR('',#3,30.0);
#512 = VECTOR('',#3,40.0);
#513 = VECTOR('',#3,30.0);
#520 = VECTOR('',#3,100.0);
#521 = VECTOR('',#3,100.0);
#522 = VECTOR('',#3,100.0);
#523 = VECTOR('',#3,100.0);
#530 = VECTOR('',#3,40.0);
#531 = VECTOR('',#3,30.0);
#532 = VECTOR('',#3,40.0);
#533 = VECTOR('',#3,30.0);
#540 = VECTOR('',#3,100.0);
#541 = VECTOR('',#3,100.0);
#542 = VECTOR('',#3,100.0);
#543 = VECTOR('',#3,100.0);
#600 = ADVANCED_FACE('',(#64),#50,.T.);
#601 = ADVANCED_FACE('',(#62,#63),#51,.T.);
#602 = ADVANCED_FACE('',(#61),#50,.F.);
#700 = CLOSED_SHELL('',(#600,#601,#602));
#800 = MANIFOLD_SOLID_BREP('',#700);
ENDSEC;
END-ISO-10303-21;
